<svg width="150" height="34" viewBox="0 0 150 34" fill="none" xmlns="http://www.w3.org/2000/svg">
<g clip-path="url(#clip0_232_94)">
<path d="M54.133 4.92432V13.9777H46.9628C46.4962 13.9777 46.0587 14.2319 45.8545 14.6485C45.5504 15.2651 45.2796 16.0859 45.0296 17.1691H44.6338V4.92432H39.1218V27.8391H44.6213V18.9023H54.133V27.8391H59.6326V4.92432H54.133Z" fill="#152356"/>
<path d="M68.1235 10.2739H62.9281V27.8391H68.1235V10.2739Z" fill="#152356"/>
<path d="M77.0436 15.6194H76.6228V10.274H71.694V27.8392H76.8894V19.7816C76.8894 16.5735 77.9227 15.5028 81.5474 15.5028H82.6181V9.54492H82.0848C79.7184 9.54492 78.1893 10.5782 77.0436 15.6194V15.6194Z" fill="#152356"/>
<path d="M92.8172 9.24072C86.9344 9.24072 83.5347 12.9071 83.5347 19.1691C83.5347 25.431 87.276 28.335 92.7381 28.335C97.896 28.335 99.9958 25.9685 100.796 22.8354L96.4419 21.6522C95.9836 23.0271 95.2212 24.1728 92.7756 24.1728C90.3299 24.1728 88.955 22.8729 88.6509 19.9732H100.912C100.987 19.0191 101.025 18.2941 101.025 17.5275C101.025 12.5238 98.3918 9.24072 92.8131 9.24072H92.8172ZM88.6926 17.3359C88.9592 14.357 90.2966 13.1362 92.6631 13.1362C95.0295 13.1362 96.1753 14.5111 96.2544 17.3359H88.6926Z" fill="#152356"/>
<path d="M117.299 4.92432H109.737L101.716 27.8391H107.408L108.974 22.7603H117.836L119.403 27.8391H125.285L117.303 4.92432H117.299ZM110.232 18.7482L112.982 9.65726H113.899L116.574 18.7482H110.232Z" fill="#152356"/>
<path d="M132.114 15.6194H131.693V10.274H126.764V27.8392H131.96V19.7816C131.96 16.5735 132.989 15.5028 136.618 15.5028H137.689V9.54492H137.155C134.789 9.54492 133.26 10.5782 132.114 15.6194V15.6194Z" fill="#152356"/>
<path d="M65.5237 8.02001C67.0216 8.02001 68.236 6.80568 68.236 5.30773C68.236 3.80979 67.0216 2.59546 65.5237 2.59546C64.0257 2.59546 62.8114 3.80979 62.8114 5.30773C62.8114 6.80568 64.0257 8.02001 65.5237 8.02001Z" fill="#152356"/>
<path d="M139.763 22.1522C139.763 25.5894 141.522 28.3767 145.721 28.3767C147.708 28.3767 148.625 28.11 150 27.6892L149.425 23.0313C148.738 23.2604 147.858 23.4896 147.059 23.4896C145.492 23.4896 144.959 22.7646 144.959 21.3106V13.8612H149.733V9.73656H147.017C146.521 9.73656 146.075 10.0407 145.904 10.5032C145.692 11.0781 145.492 11.7656 145.309 12.5822H144.963V5.07861H139.767V22.1522H139.763Z" fill="#152356"/>
<path d="M11.2615 22.6189C11.2615 21.069 10.2574 19.7608 8.86588 19.2941L8.49925 19.1775L6.54108 25.9394L6.82022 25.9978C7.1202 26.0811 7.43267 26.1269 7.75764 26.1269C9.69498 26.1269 11.2657 24.5562 11.2657 22.6189H11.2615Z" fill="#152356"/>
<path d="M32.7681 16.382C32.7681 7.33689 25.4312 0 16.382 0C7.33272 0 0 7.33689 0 16.382C0 21.444 2.29564 25.9687 5.90367 28.9768L6.8161 25.9937L8.86176 19.2942L10.5991 13.603C5.66203 12.7406 4.86626 8.89509 4.86626 8.89509H7.61187C9.96584 8.89509 10.6574 9.03675 11.5449 9.76585L11.9573 8.59095C12.149 8.0535 12.1615 7.46605 11.9907 6.92026L11.524 5.49121C11.3907 5.08708 11.4199 4.63295 11.6532 4.27464C12.1532 3.49554 13.2031 3.41222 13.8197 4.02883C14.4613 4.63711 14.1322 5.52871 14.1322 5.52871L13.5072 7.44521C13.4364 7.82018 13.553 8.20765 13.828 8.48263C14.3571 9.01175 15.2112 9.01175 15.7362 8.48263C16.0112 8.20765 16.1278 7.82018 16.057 7.44521L15.4279 5.51204C15.2737 5.03708 15.3362 4.50379 15.657 4.12049C16.2153 3.44971 17.2402 3.44971 17.7985 4.12049C18.1193 4.50379 18.1818 5.03708 18.0277 5.51204L17.4694 7.2244C17.2027 8.04516 17.8152 8.89093 18.6776 8.89093H19.9108C19.9108 8.89093 21.7524 11.549 24.4605 13.6947L28.0268 16.282C28.9726 17.0944 28.9851 18.261 28.9851 18.261C28.9851 18.6984 28.9309 19.0776 28.8351 19.4067C28.2643 21.3524 25.6645 21.7565 24.4396 20.1358C24.0855 19.665 23.5147 19.4067 22.9273 19.4026L15.2779 19.3859C14.8946 19.3859 14.6154 19.3901 14.3113 19.3401C13.7072 19.2484 13.1114 18.9901 12.6031 18.5901C12.399 18.4318 12.2281 18.2443 12.074 18.0318L11.774 18.2027C11.799 18.2735 11.824 18.3443 11.849 18.411C11.999 18.7693 12.2156 19.1109 12.4781 19.4026C12.9906 19.9858 13.6697 20.4483 14.4363 20.7108C14.8154 20.8483 15.2404 20.9149 15.5695 20.9774C15.5695 20.9774 18.1943 21.1941 18.1943 23.0564V32.6556C26.3895 31.7515 32.7598 24.8104 32.7598 16.3736L32.7681 16.382Z" fill="#00D77F"/>
<path d="M15.5654 13.0904C15.5654 13.7362 16.0903 14.2611 16.7361 14.2611C17.3819 14.2611 17.9068 13.7362 17.9068 13.0904C17.9068 12.4446 17.3819 11.9197 16.7361 11.9197C16.0903 11.9197 15.5654 12.4446 15.5654 13.0904V13.0904Z" fill="#152356"/>
<path d="M12.699 31.0432C13.9829 31.0432 15.0238 30.0023 15.0238 28.7184C15.0238 27.4344 13.9829 26.3936 12.699 26.3936C11.415 26.3936 10.3741 27.4344 10.3741 28.7184C10.3741 30.0023 11.415 31.0432 12.699 31.0432Z" fill="#152356"/>
<path d="M8.30346 30.6807C7.50352 30.6807 6.85358 31.3306 6.85358 32.1305C6.85358 32.9305 7.50352 33.5804 8.30346 33.5804C9.10339 33.5804 9.75333 32.9305 9.75333 32.1305C9.75333 31.3306 9.10339 30.6807 8.30346 30.6807Z" fill="#152356"/>
</g>
<defs>
<clipPath id="clip0_232_94">
<rect width="150" height="33.5847" fill="white"/>
</clipPath>
</defs>
</svg>
